<?xml version="1.0" encoding="iso-8859-1"?>
<!-- Generator: Adobe Illustrator 19.0.0, SVG Export Plug-In . SVG Version: 6.00 Build 0)  -->
<svg version="1.1" id="Layer_1" xmlns="http://www.w3.org/2000/svg" xmlns:xlink="http://www.w3.org/1999/xlink" x="0px" y="0px"
	 viewBox="0 0 512.001 512.001" style="enable-background:new 0 0 512.001 512.001;" xml:space="preserve">
<g>
	<g>
		<path d="M487.592,435.748l-17.986-21.223c-2.495-2.943-6.433-4.225-10.183-3.318c-9.734,2.36-19.797,4.083-29.912,5.12
			c-74.977,7.698-144.062-17.704-199.797-73.441c-55.458-55.457-59.822-110.548-65.861-186.796c-0.432-5.454-0.871-11-1.339-16.645
			c-0.053-0.644-0.073-1.458-0.097-2.32c-0.06-2.268-0.135-5.09-0.813-8.263c-0.919-4.311-2.208-8.605-3.831-12.763
			c-3.352-8.59-2.736-18.314,1.694-26.679l29.211-55.171c1.266-2.392,1.53-5.186,0.734-7.771c-0.794-2.585-2.584-4.749-4.976-6.014
			L148.028,1.188c-4.975-2.636-11.149-0.736-13.786,4.241l-28.02,52.921c-3.068,5.794-8.742,10.04-15.568,11.649
			c-10.423,2.455-18.983,8.259-24.753,16.783c-72.968,107.767-54.177,234.461,50.266,338.903
			c45.076,45.075,106.018,74.78,171.6,83.642c13.201,1.783,26.259,2.674,39.114,2.674c17.919,0,35.445-1.732,52.402-5.19
			c30.312-6.181,57.285-17.596,80.172-33.926c9.818-7.007,19.094-14.855,27.568-23.33
			C490.776,445.802,491.023,439.798,487.592,435.748z M147.497,23.986l18.381,9.732l-19.362,36.57l-7.121-4.353l-10.659-6.515
			L147.497,23.986z M327.016,491.688c-69.631-0.005-144.085-28.087-196.426-80.427C33.606,314.276,15.737,197.25,82.792,98.215
			c3.601-5.32,8.808-7.485,12.541-8.364c8.871-2.092,16.736-6.701,22.641-13.103l19.724,12.056
			c-3.588,11.348-3.271,23.584,1.072,34.708c1.223,3.135,2.194,6.367,2.885,9.607c0.285,1.334,0.323,2.82,0.369,4.541
			c0.029,1.106,0.059,2.248,0.159,3.461c0.464,5.625,0.903,11.148,1.333,16.579c6.144,77.569,10.998,138.835,71.772,199.61
			c30.458,30.458,64.976,52.68,102.594,66.05c34.126,12.129,70.167,16.78,107.232,13.847l0.385,0.638l2.056,3.409
			c-25.368,10.272-51.968,15.3-78.603,15.298c-58.526-0.003-117.169-24.207-162.934-69.972
			c-71.259-71.258-100.302-152.438-81.779-228.589c1.332-5.473-2.026-10.988-7.5-12.32c-5.473-1.333-10.988,2.026-12.32,7.5
			c-20.27,83.333,10.688,171.349,87.175,247.833c37.321,37.321,83.187,62.057,132.64,71.533c15.021,2.878,30.068,4.308,44.999,4.308
			c30.638-0.001,60.756-6.035,88.979-17.916l1.572,2.607C407.56,481.9,368.132,491.69,327.016,491.688z M456.417,449.616
			l-2.346-3.889l-6.772-11.23c3.609-0.607,7.198-1.292,10.754-2.055l7.76,9.157C462.769,444.363,459.634,447.039,456.417,449.616z"
			/>
	</g>
</g>
<g>
	<g>
		<path d="M115.913,100.363c-5.037-2.521-11.164-0.479-13.684,4.559c-1.705,3.409-3.343,6.884-4.868,10.329
			c-2.28,5.149,0.046,11.174,5.196,13.454c1.342,0.595,2.743,0.876,4.123,0.876c3.913,0,7.645-2.265,9.331-6.072
			c1.397-3.156,2.897-6.339,4.46-9.462C122.992,109.01,120.952,102.882,115.913,100.363z"/>
	</g>
</g>
<g>
</g>
<g>
</g>
<g>
</g>
<g>
</g>
<g>
</g>
<g>
</g>
<g>
</g>
<g>
</g>
<g>
</g>
<g>
</g>
<g>
</g>
<g>
</g>
<g>
</g>
<g>
</g>
<g>
</g>
</svg>
