<svg id="Layer_1" data-name="Layer 1" xmlns="http://www.w3.org/2000/svg" viewBox="0 0 817.64 519.97"><defs><style>.cls-1{fill:#24408e;}.cls-2{fill:#ec1c25;}.cls-3{fill:#050505;}</style></defs><title>pill</title><path class="cls-1" d="M1060,406.58c-.44.52-1.25,1-1.27,1.55-.36,10.74-3.46,20.87-6.15,31.18a161.49,161.49,0,0,1-14.73,36.51c-5.52,10.16-12.54,19.56-19.42,28.92a124.14,124.14,0,0,1-15.57,18c-7.68,7.08-16.29,13.13-24.42,19.72a126.09,126.09,0,0,1-31.25,18.07c-10.4,4.34-21.21,7.77-32,11.15A115.73,115.73,0,0,1,882.44,577c-7.56.13-15.1,1.18-22.66,1.19q-105.64.14-211.29,0c-1.5,0-3-.13-4.49-.21,0-17.7,0-35.4,0-53.1,0-5.71.19-11.43.29-17.14,6.3,4.65,13.09,7.61,21.18,7.6q100.75-.12,201.51-.07a30.91,30.91,0,0,0,7.32-.69c17.17-4.21,27.65-19.47,25.46-36.87-2.11-16.78-16.35-29.12-33.68-29.13h-119c1.51-1.69,2.23-2.59,3-3.4q9.57-9.6,19.16-19.16,61.13-61,122.29-122a29.14,29.14,0,0,0,9-20.06,33.92,33.92,0,0,0-34.35-35.54c-65,0-130,.09-194.94-.12-9.89,0-19,1.36-27.06,7.39-.09-.95-.27-1.9-.27-2.85q0-31,0-62c1.5,0,3-.14,4.5-.14,76.49,0,153-.13,229.46.16,9.27,0,18.6,1.95,27.76,3.72A205.55,205.55,0,0,1,930.37,201a177.85,177.85,0,0,1,34.93,16A191.58,191.58,0,0,1,1009.88,253c8.79,9.59,16.88,19.82,23.12,31.34,3.57,6.61,7.53,13.07,10.38,20,3.87,9.4,6.91,19.14,10.19,28.78a92.41,92.41,0,0,1,5.17,26.54c0,.63.82,1.23,1.26,1.84Z" transform="translate(-242.36 -190.65)"/><path class="cls-2" d="M644,190.82q0,31,0,62c0,.95.18,1.9.27,2.85-9.7,8.69-13.56,19.49-11,33.75-29.08-26.5-62.2-37.69-99.89-35.73-38,2-68.78,18.39-94,46.57-40.59,45.46-41.64,119.23-6.53,165.32,18.9,24.81,42.57,43.15,73.15,50.52,46.7,11.26,89.16,2.41,126.07-30.41,1.14,9.58,6,16.21,12.17,22.08-.1,5.71-.28,11.43-.29,17.14,0,17.7,0,35.4,0,53.1-1.63.07-3.27.21-4.9.21q-103.05,0-206.08-.1c-8,0-16-1.46-24-2.43A130,130,0,0,1,392.39,573a185.81,185.81,0,0,1-51.94-20.46,198.41,198.41,0,0,1-22.94-15.4,194.32,194.32,0,0,1-21-18.45c-10.08-10.43-19.19-21.73-26.13-34.6-3.81-7.08-8.26-13.91-11.27-21.32-4.06-10-7.18-20.46-10.39-30.81a115.53,115.53,0,0,1-5.22-33.52c-.07-7.14-1.27-14.28-1.09-21.39.17-6.5,1.46-13,2.37-19.45.77-5.53,1.3-11.15,2.67-16.53,2.23-8.69,4.67-17.37,7.74-25.78a159,159,0,0,1,10.12-22.61,177.61,177.61,0,0,1,15.85-24.52A268.32,268.32,0,0,1,306,240.8a164,164,0,0,1,24.45-19A225.08,225.08,0,0,1,359.79,206a159.68,159.68,0,0,1,26-8.81c9.13-2.35,18.54-3.7,27.87-5.2a90.84,90.84,0,0,1,14.44-1.27q105.71-.12,211.41,0C641,190.68,642.5,190.77,644,190.82Z" transform="translate(-242.36 -190.65)"/><path class="cls-3" d="M929.44,652.74c2.69,3.43,6.86,3.94,10.73,5,9.61,2.59,19.39,4.67,28.8,7.86,4.48,1.52,8.56,4.75,12.28,7.86A16.59,16.59,0,0,1,987,686.16c.11,5.05.24,10.12,0,15.17-.22,5.45-4.11,9-9.6,9-19.7,0-39.4-.19-59.09.16-5,.09-9.68-5.26-9.6-10.2a9.25,9.25,0,0,1,9.54-9.15c13.14,0,26.27.07,39.4-.12,2,0,4-1.35,6.07-2.08-1.62-1.49-3-3.74-4.89-4.35-7.39-2.37-15-4.05-22.44-6.31a129.56,129.56,0,0,1-17.7-6.28c-10.08-4.76-14-12.2-12.67-22,1.29-9.25,8.33-16.34,18.87-17.77a220,220,0,0,1,23.69-1.43c8.61-.22,17.24-.1,25.85,0a9.44,9.44,0,0,1,9,6.08c1.6,3.61,1,7.38-1.75,9.87a13.29,13.29,0,0,1-7.89,3.25c-12.44.34-24.9.1-37.34.2a49,49,0,0,0-7,1Z" transform="translate(-242.36 -190.65)"/><path class="cls-3" d="M699.25,688.56c11.74,4.37,24.18-4.31,25.45-17.35.45-4.69,2.81-7.58,7.08-9a9.26,9.26,0,0,1,10.64,3.25,12.89,12.89,0,0,1,2.27,7.16c-.89,21-18.44,37.27-39.33,37.89-19.25.58-37.47-14.53-40.44-34.16s8.11-38.65,27.13-44.79c14.65-4.73,28.09-1.86,39.48,8.87,5.19,4.89,5.3,10.7.22,15.78-10.15,10.15-20.41,20.19-30.62,30.28C700.58,687,700.09,687.62,699.25,688.56ZM685.53,674l23.22-24.57C694.16,646.92,682.43,659.44,685.53,674Z" transform="translate(-242.36 -190.65)"/><path class="cls-3" d="M754.46,669.82c0-9.71,0-19.42,0-29.12,0-7.22,3.93-11.13,11.15-11.16,8.89,0,17.8.41,26.65-.09,22.22-1.27,42,16.35,42.49,40,.23,10.11.16,20.23,0,30.34-.07,5.22-3.51,9.59-7.68,10.43a10,10,0,0,1-11.49-5.74,14.85,14.85,0,0,1-.91-5.57c-.1-9.7.13-19.41-.14-29.11a19.91,19.91,0,0,0-38.8-6,25.45,25.45,0,0,0-1,7.65c-.12,9.16,0,18.32-.07,27.48-.06,6.34-3.83,11-9,11.34-6.38.47-11.14-3.74-11.2-10.17C754.39,690.05,754.46,679.93,754.46,669.82Z" transform="translate(-242.36 -190.65)"/><path class="cls-3" d="M498.45,670.32q0,13.54,0,27.09c0,9.47-3.46,13-12.74,13-9.58,0-19.16,0-28.74,0-20.5-.14-38.32-17.47-38.84-38-.27-10.8-.11-21.62,0-32.43a10,10,0,0,1,20.06-1,84.71,84.71,0,0,1,.17,9c0,7.39-.06,14.78,0,22.16.13,11.41,8.43,19.91,19.49,20.07a19.67,19.67,0,0,0,20.36-19.27c.35-10,.09-20,.13-30,0-6.76,3.88-11.25,9.7-11.37,6-.12,10.32,4.37,10.4,11.23C498.54,650.62,498.45,660.47,498.45,670.32Z" transform="translate(-242.36 -190.65)"/><path class="cls-3" d="M325.67,669.69q0-14.15,0-28.29c0-8.1,3.71-11.85,11.68-11.86,8.75,0,17.52.39,26.24-.09,22.32-1.23,41.82,16.64,42.34,39.73.23,10.25.18,20.5,0,30.75-.07,5.19-3.62,9.56-7.79,10.33a10.07,10.07,0,0,1-11.43-5.87,14.2,14.2,0,0,1-.83-5.17c-.09-9.84.15-19.69-.15-29.52A19.93,19.93,0,0,0,346.9,664a26.16,26.16,0,0,0-1,7.66c-.12,9.16,0,18.32-.07,27.48-.06,6.11-3.72,10.72-8.66,11.21-6.54.64-11.43-3.63-11.49-10.28C325.6,689.93,325.67,679.81,325.67,669.69Z" transform="translate(-242.36 -190.65)"/><path class="cls-3" d="M867.09,629.5v30c0,3.42,0,6.84,0,10.26.08,11.5,8.12,19.57,19.93,20,7.84.3,12.5,6.52,10.18,13.59a9.68,9.68,0,0,1-9.51,6.94c-22.63.29-40.69-17.23-40.8-39.81-.11-23.25,0-46.51,0-69.76,0-6.36,4-10.88,9.66-11,5.84-.17,10.2,4.26,10.54,10.72.46,8.78.46,8.78,9.19,8.78,3.7,0,7.39-.06,11.08,0,6,.13,10.37,4.24,10.48,9.83s-4.27,10.14-10.44,10.36c-3.28.12-6.56,0-9.84,0Z" transform="translate(-242.36 -190.65)"/><path class="cls-3" d="M527,630.1c0,14.41-.34,28.76.13,43.08.3,9.29,9.27,16.2,20.17,16.66,7.7.32,12.39,7.45,9.32,14.45-1.64,3.74-4.47,6-8.88,6.09a39.86,39.86,0,0,1-41.1-39.94c-.09-23.11,0-46.23,0-69.35,0-6.67,4-11.23,9.76-11.35,6-.12,10.26,4.42,10.47,11.24.08,2.57,0,5.14,0,8.28,7.05,0,13.71-.1,20.36,0,7.69.15,12.35,7,9.49,13.92-1.76,4.24-5.17,6.2-9.69,6.27-6.43.09-12.85.14-19.27.22C527.68,629.7,527.56,629.82,527,630.1Z" transform="translate(-242.36 -190.65)"/><path class="cls-3" d="M565.72,669.87c0-9.85,0-19.7,0-29.55,0-6.75,4-10.75,10.68-10.77q20.1-.07,40.22,0c6.53,0,10.75,4.16,10.72,10.32s-4.21,10.2-10.74,10.4c-5.05.16-10.22-.35-15.12.57-9.79,1.84-15.48,9.34-15.51,19.26s0,20,0,30c0,4.78-2.33,8.31-6.68,9.84-3.73,1.31-7.88,1-10.53-2.37-1.57-2-2.06-4.82-3-7.28a1.13,1.13,0,0,1,0-.41Z" transform="translate(-242.36 -190.65)"/><path class="cls-3" d="M633.77,671c0-9.83,0-19.67,0-29.51,0-6.07,4-10.46,9.56-10.65A10,10,0,0,1,653.92,641q.26,29.71,0,59.44c-.06,6.17-4.73,10.12-10.67,10-5.54-.15-9.42-4.49-9.45-10.68C633.74,690.1,633.77,680.54,633.77,671Z" transform="translate(-242.36 -190.65)"/><path class="cls-3" d="M643.71,600a10.28,10.28,0,0,1,.16,20.56,10.28,10.28,0,0,1-.16-20.56Z" transform="translate(-242.36 -190.65)"/><path class="cls-1" d="M643.72,320.55V306.39c3.89,1.87,8.29,4.58,13.07,6.1,3.8,1.21,8.07,1.3,12.13,1.31q56,.13,112,.05h4.78L668.48,429.93a110.33,110.33,0,0,0,6.74-40c-.41-15.44-11-27.82-27.28-31-1.32-.26-2.64-.56-4-.83Q643.85,339.31,643.72,320.55Z" transform="translate(-242.36 -190.65)"/><path class="cls-2" d="M643.72,320.55q.13,18.75.25,37.52c-5.58,1.11-11.6,1.26-16.67,3.52-11.93,5.32-18.71,14.84-19,28.24-.89,38.31-36.93,68.69-74.95,63-3.87-.58-7.68-1.53-12.53-2.52,2.93-2.58,5.11-4.3,7.05-6.24q52.73-52.63,105.44-105.29C638.5,333.61,641.63,327.42,643.72,320.55Z" transform="translate(-242.36 -190.65)"/><path class="cls-2" d="M555.28,321.58,475.86,398.8c-3.55-21,1-41,16.52-57.85,16.92-18.4,37.89-24.76,62.22-20.59Z" transform="translate(-242.36 -190.65)"/></svg>