<?xml version="1.0" encoding="utf-8"?>
<!-- Generator: Adobe Illustrator 22.1.0, SVG Export Plug-In . SVG Version: 6.00 Build 0)  -->
<svg version="1.1" id="Layer_1" xmlns="http://www.w3.org/2000/svg" xmlns:xlink="http://www.w3.org/1999/xlink" x="0px" y="0px"
	 viewBox="0 0 1280 1024" style="enable-background:new 0 0 1280 1024;" xml:space="preserve">
<style type="text/css">
	.st0{fill:#23408E;}
	.st1{fill:#EC1B24;}
	.st2{fill:#040404;}
	.st3{fill:#050505;}
	.st4{fill:#030303;}
	.st5{fill:#060606;}
	.st6{fill:#090909;}
	.st7{fill:#24418E;}
	.st8{fill:#EC1D26;}
	.st9{fill:#EC1F27;}
</style>
<g>
	<g>
		<path class="st0" d="M1282,435.9c-2.7,12.9-5.1,25.9-8,38.7c-9.6,42-28.5,79.5-54.8,113.5c-30.9,40-69.7,70.4-115.8,90.7
			c-25,11.1-51,20-78.6,22.3c-20.8,1.7-41.6,3.8-62.4,3.9c-106.8,0.4-213.6,0.2-320.4,0.2c-3.7,0-7.4-0.2-11-0.3
			c0.1-36.6,0.2-73.3,0.3-109.9c10.5,7.6,21.9,12,35.3,12c103.8-0.2,207.6-0.1,311.4-0.2c4.3,0,8.8-0.1,12.9-1
			c26.7-6,43.2-29.8,40.2-57.6c-2.7-25.9-25.3-45.8-52.3-45.8c-58.6-0.1-117.2,0-175.8,0c-3.1,0-6.3,0-12.5,0
			c5.1-4.5,7.9-6.8,10.4-9.4c71.8-71.7,143.7-143.3,215.2-215.2c6.1-6.2,11.8-14.2,14.2-22.4c9.9-33.2-16-66.4-51.2-66.4
			c-102.8-0.1-205.6,0.1-308.4-0.2c-14.7,0-27.8,2.9-39.6,11.5c-0.1-33.8-0.2-67.6-0.3-101.4c3.7-0.1,7.3-0.3,11-0.3
			c106.4,0,212.8-0.1,319.1,0.1c18.3,0,36.5,0.8,54.7,2c32.3,2.1,62.6,11.8,91.7,25.4c44.9,20.9,82.4,50.8,112.6,90.3
			c23.9,31.2,41.3,65.5,51.6,103.3c4.1,15.2,6.8,30.8,10.2,46.2C1282,389,1282,412.5,1282,435.9z"/>
		<path class="st1" d="M631,98.7c0.1,33.8,0.2,67.6,0.3,101.4c-15.2,13.3-20.8,30.2-17.8,51.3c-87-80.1-223.5-68.9-297.3,11.9
			c-68.1,74.6-74.5,191.6-12.1,270.2c33.1,41.6,75,69.6,128,78.2c67.5,10.9,128.1-4.4,180.2-51.6c1.7,15.2,9.5,25.5,19,34.8
			c-0.1,36.6-0.2,73.3-0.3,109.9c-43.5,0.1-87,0.3-130.5,0.3c-64.3,0.1-128.5,0-192.8,0c-67.2,0-128.4-19.7-182.5-59.2
			C77.3,610.9,43,564.6,22,508.7c-10.3-27.4-17.4-55.4-18.1-84.8c0-1.3-1.3-2.7-1.9-4c0-12.7,0-25.5,0-38.2
			c1.4-10.5,2-21.2,4.2-31.6c7.3-34.8,18-68.4,35.9-99.6c22.6-39.3,52.4-71.7,89.4-97.6c52.5-36.8,110.6-55.2,175-54.7
			c73,0.6,146,0.1,219,0.2C560.7,98.4,595.8,98.6,631,98.7z"/>
		<path class="st2" d="M868.3,912.2c-35-0.1-62.5-27.9-62.5-63.3c0-35.8,27.8-63.5,63.6-63.3c34.8,0.2,62.5,28.6,62.1,63.8
			C931,884.8,903.4,912.3,868.3,912.2z M868.9,815.8c-17.5-0.1-31.4,14-31.4,32.1c0,17.6,13.3,31.7,30.3,32.1
			c17.4,0.4,31.9-13.8,32.2-31.5C900.3,830.7,886.2,815.9,868.9,815.8z"/>
		<path class="st3" d="M403.2,849.6c0,14.4,0.2,28.8,0,43.2c-0.2,14-5.8,19.4-19.7,19.4c-15.1,0.1-30.1,0.2-45.2,0
			c-32.7-0.5-60.1-27.4-60.9-59.9c-0.4-16.4-0.2-32.8-0.1-49.2c0.1-10.4,6.3-17.3,15.3-17.5c8.9-0.2,15.9,6.5,16.2,16.8
			c0.4,15,0.1,30.1,0.2,45.2c0.2,19.3,12.4,32.6,30.3,32.9c18.3,0.3,31.8-13,32.2-32.3c0.3-15.1,0-30.1,0.1-45.2
			c0.1-10.5,6.2-17.3,15.3-17.4c9-0.2,15.8,6.4,16.1,16.8C403.4,818.1,403.1,833.8,403.2,849.6C403.1,849.6,403.1,849.6,403.2,849.6
			z"/>
		<path class="st2" d="M132.6,848.8c0-14.4,0-28.8,0-43.2c0-14.7,5.2-20.1,19.7-20.1c13.1,0,26.1,0,39.2,0c38.8,0,65,24.6,66.8,63.5
			c0.7,15,0.4,30.1,0.1,45.2c-0.2,11.3-6.6,18.1-16,18c-9.5-0.1-15.4-6.9-15.5-18.2c-0.1-14.1,0.1-28.1-0.1-42.2
			c-0.3-19.8-14-34.2-32-33.8c-17.8,0.4-30.3,14.3-30.5,34c-0.1,13.7,0.1,27.4-0.1,41.2c-0.2,11.9-6.4,19-16,19
			c-9.7,0-15.6-7.1-15.6-19.1C132.6,878.3,132.6,863.6,132.6,848.8z"/>
		<path class="st2" d="M948.4,848.2c0-15.1-0.1-30.1,0-45.2c0.1-11.4,5.9-17.3,17.3-17.5c13.7-0.2,27.4,0,41.2,0
			c39.5,0,65.7,24.7,67.3,64c0.6,14.7,0.3,29.4,0,44.2c-0.2,11.8-6.9,18.8-16.6,18.4c-9.5-0.5-14.8-7.1-14.9-18.8
			c-0.1-14.1,0.2-28.1-0.1-42.2c-0.3-19.2-13.9-33.3-31.6-33.2c-17.8,0.1-30.7,14.1-30.9,33.6c-0.1,13.7,0.1,27.4-0.1,41.2
			c-0.1,12.5-6.6,19.8-16.6,19.4c-9.6-0.4-15-7.4-15-19.7C948.4,877.7,948.4,863,948.4,848.2z"/>
		<path class="st3" d="M447.7,785.5c0,21.9-0.1,42.3,0,62.7c0.1,18,11.6,30.1,29.4,31.7c12.5,1.1,19.4,7.5,18.5,17.4
			c-0.9,10.2-8.5,15.4-21.1,14.6c-32.6-2.1-58.2-28.6-58.5-61.3c-0.3-36.2-0.1-72.3-0.1-108.5c0-11.9,6.1-19.1,15.8-19
			c9.3,0.1,15.4,7.1,15.9,18.3c0.2,3.7,0,7.3,0,12.2c9.9,0,19.5-0.1,29.1,0c11.8,0.1,19.1,6.3,18.9,16c-0.2,9.7-7.4,15.6-19.3,15.7
			C467.1,785.6,457.8,785.5,447.7,785.5z"/>
		<path class="st3" d="M694.8,753.7c8.9,0,16.5,0,24.2,0c16.4,0,24.1,5.2,23.9,16.1c-0.3,10.8-7.8,15.7-24.4,15.7
			c-7.6,0-15.2,0-23.4,0c0,23.5-0.6,46.2,0.2,68.8c0.5,13.6,13.7,24.3,29.1,25.6c12.5,1,19.4,7.6,18.4,17.5
			c-1,10.2-8.5,15.4-21.1,14.5c-32.6-2.1-58.2-28.6-58.5-61.3c-0.3-36.5-0.1-73,0-109.5c0-10.6,5.9-17.4,14.9-17.9
			c9.4-0.5,16.1,6.4,16.8,17.3C695,744.6,694.8,748.6,694.8,753.7z"/>
		<path class="st4" d="M508.4,849.5c0-15.4-0.1-30.8,0-46.1c0.1-12.1,5.8-17.7,17.9-17.8c20.4-0.1,40.8-0.1,61.2,0
			c10.9,0.1,17.5,6.4,17.4,16.3c-0.1,9.8-6.7,15.8-17.7,16c-5.3,0.1-10.7-0.1-16,0c-18.3,0.5-30.7,12.8-30.9,31
			c-0.2,15,0.1,30.1-0.1,45.1c-0.2,11.9-6.5,18.5-16.7,18.1c-9.7-0.4-14.9-6.8-15-18.5C508.3,878.9,508.4,864.2,508.4,849.5z"/>
		<path class="st5" d="M614.9,848.8c0-14.7-0.1-29.4,0-44.1c0.1-10.4,6.3-17.1,15.4-17.2c9.1-0.1,16,6.4,16.1,16.7
			c0.3,30.4,0.3,60.8,0,91.2c-0.1,10.4-7,16.8-16.2,16.7c-9.2-0.1-15.3-6.8-15.4-17.2C614.7,879.6,614.9,864.2,614.9,848.8z"/>
		<path class="st5" d="M755.5,849.4c0-14.7-0.1-29.4,0-44.1c0.1-10.6,5.9-17.3,14.9-17.7c9.5-0.4,16.6,6.3,16.7,17.2
			c0.3,30.1,0.3,60.1,0,90.2c-0.1,11-7.1,17.6-16.7,17.2c-9.1-0.4-14.8-7.1-14.9-17.7C755.4,879.4,755.5,864.4,755.5,849.4z"/>
		<path class="st6" d="M646.4,755.4c0.1,8.8-7.1,16.1-15.8,16.1c-8.8,0-15.8-7-15.8-16c0-9,7-16.2,15.7-16.2
			C639.1,739.3,646.4,746.7,646.4,755.4z"/>
		<path class="st6" d="M755.5,754.7c0.4-8.9,7.8-15.8,16.5-15.4c8.5,0.4,15.5,8.3,15.1,16.9c-0.4,8.8-7.9,15.7-16.6,15.3
			C761.7,771.1,755.1,763.6,755.5,754.7z"/>
		<path class="st7" d="M630.6,301.5c0-7,0-14,0-23.4c15.9,15.4,34.6,13.3,52.9,13.3c55.5,0,111,0,166.4,0
			c-60.5,59.8-120.8,119.4-178,176c2-12,4.6-28.6,7.4-45.2c5.4-32.2-18-58.9-48.4-61.5C630.8,340.9,630.7,321.2,630.6,301.5z"/>
		<path class="st8" d="M630.6,301.5c0.1,19.7,0.2,39.4,0.3,59.1c-7.9,1.3-16.3,1.2-23.5,4.1c-20,8-31.7,23-32.5,45.1
			c-2.5,66.8-66.1,114-130.3,96.5c-1.5-0.4-3-1.1-4.5-1.7c32.9-33,65.3-65.6,97.8-98.1c23.6-23.7,47.1-47.5,71-70.9
			C619,325.8,626.9,315.1,630.6,301.5z"/>
		<path class="st9" d="M491.7,302.2c-42,40.7-83.6,81.1-123.8,120C352.1,352.9,417.3,286.6,491.7,302.2z"/>
	</g>
</g>
</svg>
