<?xml version="1.0" encoding="utf-8"?>
<!-- Generator: Adobe Illustrator 22.1.0, SVG Export Plug-In . SVG Version: 6.00 Build 0)  -->
<svg version="1.1" id="Layer_1" xmlns="http://www.w3.org/2000/svg" xmlns:xlink="http://www.w3.org/1999/xlink" x="0px" y="0px"
	 viewBox="0 0 1280 1024" style="enable-background:new 0 0 1280 1024;" xml:space="preserve">
<style type="text/css">
	.st0{fill:#444343;}
</style>
<g>
	<g>
		<path class="st0" d="M773.4,446.4c2.6,2.4,5,4.4,7.2,6.6c6.1,6,12.1,12,18.1,18c5.6,5.6,5.6,11.4,0,17c-8,7.9-15.9,16-24.1,23.6
			c-6.5,6.1-14.5,10-23.1,12.4c-0.4,0.1-0.8,0.2-1.3,0.4c0.5,1.5,1.3,2.8,1.5,4.2c0.6,3.3-0.2,6.4-2.6,8.8
			c-8.7,8.7-17.4,17.5-26.4,25.9c-6.5,6-14.6,9.4-23.3,11.9c3.5,6,1.6,10.8-3.1,15.3c-6.6,6.3-12.9,12.8-19.3,19.2
			c-12.1,12.2-26.8,18.5-43.9,18.6c-15.9,0.1-30-5.3-41.8-16.2c-4.3-4-8.3-8.4-12.6-12.8c-0.9,0.8-1.5,1.4-2.1,2.1
			c-23.5,23.5-47,47.1-70.5,70.6c-5.8,5.9-13.2,7.1-19.8,3.5c-8-4.5-10.2-15.9-4.4-22.9c1-1.2,2-2.3,3-3.3
			c23.1-23.2,46.3-46.3,69.4-69.5c0.6-0.6,1.4-1.2,2.8-2.9c-0.8-0.4-1.9-0.6-2.5-1.2c-5.3-5.7-11.2-11-15.8-17.3
			c-9.7-13.4-12.8-28.7-10.3-45c2.1-13.6,8.4-25.1,18.1-34.8c6.6-6.5,13.1-13.1,19.6-19.6c4.7-4.7,8.3-5.3,14.2-2.4
			c1.1-3,2.2-6,3.4-9c3.1-7.6,7.7-14.1,13.6-19.8c6.6-6.5,13.1-13.1,19.6-19.6c4.6-4.6,8.2-5.2,14-2.1c1.1-2.9,2.1-5.9,3.2-8.7
			c3.1-7.6,7.7-14.2,13.5-19.9c6.9-6.9,13.8-13.8,20.7-20.7c4.8-4.8,10.9-4.8,15.7,0c8.6,8.6,17.2,17.2,25.8,25.8
			c9.1-15.6,23.4-23.7,40-28.5c14.9-4.3,30.3-5.6,45.7-4.4c7.9,0.6,11.1,4.7,11.2,12.5c0.2,13.6-0.3,27.1-3.5,40.4
			c-3.1,12.3-7.6,24-16.4,33.5c-3.1,3.4-7.1,5.9-10.8,8.7C775.7,445.2,774.9,445.5,773.4,446.4z M676.4,392.4
			c-2.3,2.4-4.4,4.6-6.6,6.8c-9.7,10.2-12.2,22.9-7,34.7c3.7,8.4,11.1,13.7,17.3,20.5c2.4-2.5,4.4-4.8,6.6-7
			c9.9-10.2,12.3-24,6.2-36.1C689.1,403.7,682.3,398.7,676.4,392.4z M578.2,555.9c3-3,5.6-5.3,7.9-7.8c9.5-10.2,11.4-24,4.9-36
			c-3.9-7.1-10.5-11.9-15.9-17.9c-2.8,2.8-5.5,5.3-8,8c-9.2,9.9-11.3,24.6-4,36C567.2,544.6,573,549.9,578.2,555.9z M660.9,580.9
			c-3.8-4-7.8-8.4-12.1-12.6c-1.8-1.7-4-3-6.3-4c-17.7-7.8-31.6,0.3-41.6,13.4c3.9,3.9,7.5,8,11.6,11.7
			c11.4,10.1,27.4,10.7,39.3,1.2C655.4,587.8,658,584,660.9,580.9z M763.2,479.5c-3.8-3.8-7.3-7.3-10.8-10.8
			c-9.9-9.7-24.6-12-36.5-4.8c-5.1,3.1-9.4,7.6-14.3,11.7c5.2,4.9,9.6,9.8,14.6,13.8c8.2,6.4,17.6,7.7,27.6,4.8
			C752.2,491.7,757.3,485.4,763.2,479.5z M712.9,530.8c-4.3-4.3-7.8-8.1-11.7-11.7c-7.3-6.8-15.8-9.7-25.9-8.2
			c-10.4,1.5-17.1,8.5-24.2,16c3.8,3.6,7.4,7.1,11.1,10.6c10,9.4,23.9,11.8,35.4,5.3C703.3,539.7,707.8,535,712.9,530.8z M629.6,505
			c2.3-2.5,4.4-4.8,6.5-7c11.2-11.6,12.6-27.6,2.9-40.5c-3.8-5.1-8.7-9.4-13.1-14.1c-2.8,2.8-5.5,5.3-8,7.9
			c-8.6,9.1-10.6,22-5.6,33.4C616,493.1,623.5,498.1,629.6,505z M775.7,380.6c-2.7,0.4-5.1,0.6-7.5,1c-6.8,1.1-13.3,2.9-19.5,5.9
			c-6.2,3-10.5,7.6-13.5,13.8c-3.9,8.2-5.4,16.8-6.3,25.9c10.3-1,19.9-3,29-7.7c4.9-2.5,8.2-6.2,10.7-11.1
			C773,399.8,774.6,390.5,775.7,380.6z"/>
	</g>
</g>
</svg>
